HIERARCHY
ROOT Hips
{
	OFFSET 0.000000 0.000000 0.000000
	CHANNELS 6 Xposition Yposition Zposition Zrotation Yrotation Xrotation 
	JOINT LHipJoint
	{
		OFFSET 0.000000 0.000000 0.000000
		CHANNELS 3 Zrotation Yrotation Xrotation
		JOINT LeftUpLeg
		{
			OFFSET 1.363060 -1.794630 0.839290
			CHANNELS 3 Zrotation Yrotation Xrotation
			JOINT LeftLeg
			{
				OFFSET 2.448110 -6.726130 0.000000
				CHANNELS 3 Zrotation Yrotation Xrotation
				JOINT LeftFoot
				{
					OFFSET 2.562200 -7.039590 0.000000
					CHANNELS 3 Zrotation Yrotation Xrotation
					JOINT LeftToeBase
					{
						OFFSET 0.157640 -0.433110 2.322550
						CHANNELS 3 Zrotation Yrotation Xrotation
						End Site
						{
							OFFSET 0.000000 0.000000 0.000000
						}
					}
				}
			}
		}
	}
	JOINT RHipJoint
	{
		OFFSET 0.000000 0.000000 0.000000
		CHANNELS 3 Zrotation Yrotation Xrotation
		JOINT RightUpLeg
		{
			OFFSET -1.305520 -1.794630 0.839290
			CHANNELS 3 Zrotation Yrotation Xrotation
			JOINT RightLeg
			{
				OFFSET -2.542530 -6.985550 0.000000
				CHANNELS 3 Zrotation Yrotation Xrotation
				JOINT RightFoot
				{
					OFFSET -2.568260 -7.056230 0.000000
					CHANNELS 3 Zrotation Yrotation Xrotation
					JOINT RightToeBase
					{
						OFFSET -0.164730 -0.452590 2.363150
						CHANNELS 3 Zrotation Yrotation Xrotation
						End Site
						{
							OFFSET 0.000000 0.000000 0.000000
						}
					}
				}
			}
		}
	}
	JOINT LowerBack
	{
		OFFSET 0.000000 0.000000 0.000000
		CHANNELS 3 Zrotation Yrotation Xrotation
		JOINT Spine
		{
			OFFSET 0.028270 2.035590 -0.193380
			CHANNELS 3 Zrotation Yrotation Xrotation
			JOINT Spine1
			{
				OFFSET 0.056720 2.048850 -0.042750
				CHANNELS 3 Zrotation Yrotation Xrotation
				JOINT Neck
				{
					OFFSET 0.000000 0.000000 0.000000
					CHANNELS 3 Zrotation Yrotation Xrotation
					JOINT Neck1
					{
						OFFSET -0.054170 1.746240 0.172020
						CHANNELS 3 Zrotation Yrotation Xrotation
						JOINT Head
						{
							OFFSET 0.104070 1.761360 -0.123970
							CHANNELS 3 Zrotation Yrotation Xrotation
							End Site
							{
								OFFSET 0.000000 0.000000 0.000000
							}
						}
					}
				}
				JOINT LeftShoulder
				{
					OFFSET 0.000000 0.000000 0.000000
					CHANNELS 3 Zrotation Yrotation Xrotation
					JOINT LeftArm
					{
						OFFSET 3.362410 1.200890 -0.311210
						CHANNELS 3 Zrotation Yrotation Xrotation
						JOINT LeftForeArm
						{
							OFFSET 4.983000 -0.000000 -0.000000
							CHANNELS 3 Zrotation Yrotation Xrotation
							JOINT LeftHand
							{
								OFFSET 3.483560 -0.000000 -0.000000
								CHANNELS 3 Zrotation Yrotation Xrotation
								JOINT LeftFingerBase
								{
									OFFSET 0.000000 0.000000 0.000000
									CHANNELS 3 Zrotation Yrotation Xrotation
									JOINT LeftHandIndex1
									{
										OFFSET 0.715260 -0.000000 -0.000000
										CHANNELS 3 Zrotation Yrotation Xrotation
										End Site
										{
											OFFSET 0.000000 0.000000 0.000000
										}
									}
								}
								JOINT LThumb
								{
									OFFSET 0.000000 0.000000 0.000000
									CHANNELS 3 Zrotation Yrotation Xrotation
									End Site
									{
										OFFSET 0.000000 0.000000 0.000000
									}
								}
							}
						}
					}
				}
				JOINT RightShoulder
				{
					OFFSET 0.000000 0.000000 0.000000
					CHANNELS 3 Zrotation Yrotation Xrotation
					JOINT RightArm
					{
						OFFSET -3.136600 1.374050 -0.404650
						CHANNELS 3 Zrotation Yrotation Xrotation
						JOINT RightForeArm
						{
							OFFSET -5.241900 -0.000000 -0.000000
							CHANNELS 3 Zrotation Yrotation Xrotation
							JOINT RightHand
							{
								OFFSET -3.444170 -0.000000 -0.000000
								CHANNELS 3 Zrotation Yrotation Xrotation
								JOINT RightFingerBase
								{
									OFFSET 0.000000 0.000000 0.000000
									CHANNELS 3 Zrotation Yrotation Xrotation
									JOINT RightHandIndex1
									{
										OFFSET -0.622530 -0.000000 -0.000000
										CHANNELS 3 Zrotation Yrotation Xrotation
										End Site
										{
											OFFSET 0.000000 0.000000 0.000000
										}
									}
								}
								JOINT RThumb
								{
									OFFSET 0.000000 0.000000 0.000000
									CHANNELS 3 Zrotation Yrotation Xrotation
									End Site
									{
										OFFSET 0.000000 0.000000 0.000000
									}
								}
							}
						}
					}
				}
			}
		}
	}
}
MOTION
Frames: 12
Frame Time: 0.008333
0.094270 16.265348 0.656012 3.292255 5.053640 -6.705048 6.601638 4.902462 0.950126 -28.622319 -6.632867 -5.203174 6.121699 12.717597 44.976586 2.344894 -1.151157 -25.319390 0.735500 -5.479100 -15.280100 -8.424246 -5.078250 -0.930947 23.692602 0.277317 -5.051937 -7.650860 -13.405125 48.702307 -1.610631 -10.486837 -32.160667 -0.615600 5.021300 -13.969500 1.426807 2.754590 9.612027 1.924681 4.040831 2.177053 -0.958690 1.951787 2.639417 -6.721806 -3.537604 -3.364991 3.889964 -4.837302 8.021129 1.815100 -2.444300 2.352900 -0.985403 -4.694863 3.361027 -86.111421 -17.823881 40.566392 149.583723 -40.424657 -108.051428 -0.145512 3.151872 16.953007 -36.090746 42.420741 -24.015800 -7.125000 0.000000 0.000000 -73.054100 55.265600 -29.109400 -0.519276 4.272385 1.660643 82.300199 20.106749 35.683545 -148.110918 39.127995 -107.320591 0.486400 -0.775987 24.999665 44.568075 -5.199593 -4.365400 7.125000 0.000000 0.000000 45.769300 -26.267000 32.542500 
0.095723 16.292379 0.663569 3.407457 4.939111 -6.500168 6.586954 4.909451 0.951740 -28.691340 -6.485176 -5.173406 5.992646 12.590633 44.468123 2.320824 -1.186461 -25.113273 0.703500 -5.360900 -14.940800 -8.412371 -5.080485 -0.916879 23.576548 0.382930 -5.058839 -7.541997 -13.310469 48.266775 -1.588417 -10.464314 -31.989402 -0.595400 4.939700 -13.736500 1.321947 2.783494 9.577710 1.850671 4.065345 1.985707 -1.033424 1.967727 2.365023 -6.658160 -3.510172 -3.465309 3.914564 -4.794318 8.190549 1.814700 -2.422200 2.451800 -0.988723 -4.673194 3.344121 -85.897948 -17.399820 40.346844 149.624827 -40.398436 -108.069941 -0.111936 3.140049 17.083620 -35.601249 42.386870 -23.636300 -7.125000 0.000000 0.000000 -72.682000 55.349800 -28.979700 -0.534318 4.274115 1.649516 82.351822 19.974786 35.575027 -148.200420 39.047064 -107.383541 0.485813 -0.772512 24.544024 44.425979 -5.161262 -4.304700 7.125000 0.000000 0.000000 45.737600 -26.301000 32.415800 
0.098823 16.321929 0.670836 3.451528 4.828119 -6.299742 6.570694 4.914656 0.948738 -28.700792 -6.357930 -5.131616 5.860427 12.461231 43.951977 2.276615 -1.083501 -24.905839 0.703100 -5.359400 -14.936400 -8.401609 -5.083824 -0.911610 23.515520 0.433304 -5.032989 -7.430684 -13.209341 47.815914 -1.589149 -10.314267 -31.829293 -0.575900 4.859700 -13.508900 1.307337 2.823195 9.365354 1.804326 4.105568 1.903782 -1.094093 1.988134 2.364173 -6.595799 -3.496976 -3.647209 3.908742 -4.764215 8.291472 1.799800 -2.405500 2.530400 -0.992599 -4.667030 3.339809 -85.723345 -17.323416 40.146670 149.707080 -40.328547 -108.110807 -0.077510 3.143159 17.191915 -35.193215 42.537513 -23.396300 -7.125000 0.000000 0.000000 -72.581300 55.499100 -29.192500 -0.540041 4.274201 1.643689 82.305502 20.064108 35.534316 -148.200341 39.034491 -107.392757 0.475806 -0.773643 24.751919 43.538425 -4.923883 -3.958100 7.125000 0.000000 0.000000 45.534400 -26.543000 31.570300 
0.103764 16.350995 0.674518 3.487643 4.730985 -6.069371 6.555873 4.919543 0.953701 -28.731059 -6.315795 -5.123541 5.733580 12.338640 43.457188 2.233633 -0.978329 -24.709941 0.694900 -5.328900 -14.848900 -8.392348 -5.089952 -0.902262 23.444078 0.452825 -5.082960 -7.317277 -13.107486 47.357008 -1.571253 -10.231490 -31.624303 -0.578600 4.870900 -13.540700 1.294311 2.855519 9.260138 1.770632 4.139132 1.749795 -1.145187 2.007261 2.185544 -6.556363 -3.481141 -3.797072 3.875422 -4.730210 8.446852 1.777400 -2.389000 2.630400 -0.998724 -4.660795 3.328188 -85.583254 -17.180009 39.931264 149.858328 -40.201384 -108.199374 -0.066741 3.152874 17.056145 -34.911857 42.715082 -23.258200 -7.125000 0.000000 0.000000 -72.597300 55.636700 -29.472800 -0.546226 4.282817 1.634853 82.263166 20.084860 35.579260 -148.225477 38.995981 -107.422126 0.463258 -0.777015 25.012667 42.631503 -4.816721 -3.740000 7.125000 0.000000 0.000000 45.361700 -26.890500 30.592200 
0.107446 16.378414 0.676068 3.515430 4.639239 -5.807624 6.541384 4.923374 0.957084 -28.731457 -6.288556 -5.194384 5.613811 12.227113 42.990293 2.204719 -0.902026 -24.581031 0.715100 -5.404000 -15.064500 -8.388546 -5.096188 -0.888944 23.418337 0.535961 -5.174205 -7.207548 -13.010314 46.913508 -1.544955 -10.210789 -31.431671 -0.578300 4.869700 -13.537400 1.245735 2.889902 9.046178 1.764893 4.171235 1.640946 -1.106988 2.021437 2.130397 -6.673065 -3.475689 -3.999293 3.939542 -4.709245 8.581189 1.826700 -2.381100 2.741100 -1.004544 -4.666606 3.322948 -85.513240 -17.217914 39.638089 149.961952 -40.107671 -108.259843 -0.057447 3.147557 16.828248 -34.529354 42.740296 -22.985300 -7.125000 0.000000 0.000000 -72.364500 55.727000 -29.462400 -0.549944 4.285486 1.627139 82.130648 20.260418 35.593965 -148.324249 38.898993 -107.502415 0.450334 -0.780687 24.967389 41.843636 -4.946582 -3.747900 7.125000 0.000000 0.000000 45.292400 -27.375700 29.534200 
0.109771 16.402441 0.678490 3.428264 4.519797 -5.586929 6.526682 4.926199 0.953347 -28.588174 -6.223405 -5.257019 5.507541 12.125697 42.565591 2.188483 -0.894613 -24.471080 0.719800 -5.421500 -15.114800 -8.387894 -5.103755 -0.875970 23.533102 0.644692 -5.198256 -7.099729 -12.909089 46.471920 -1.555257 -10.021138 -31.292774 -0.541900 4.716600 -13.101900 1.385783 2.937480 8.772709 1.743042 4.228206 1.575378 -1.190414 2.052547 2.193245 -6.690431 -3.490416 -4.191528 3.966746 -4.715368 8.684328 1.843300 -2.384100 2.829100 -1.005035 -4.676062 3.326752 -85.328177 -17.428256 39.346338 150.041157 -40.014673 -108.311817 -0.044317 3.126629 16.631615 -34.035973 42.529229 -22.535900 -7.125000 0.000000 0.000000 -71.768800 55.731000 -29.001500 -0.555467 4.291819 1.619982 82.104602 20.424706 35.551748 -148.486580 38.749854 -107.626964 0.436686 -0.782612 24.977449 40.994887 -4.959095 -3.647000 7.125000 0.000000 0.000000 45.134500 -27.749500 28.577700 
0.113647 16.425597 0.681203 3.421487 4.392157 -5.413265 6.513664 4.930775 0.955239 -28.558281 -6.159266 -5.254672 5.408410 12.024085 42.166843 2.145387 -0.865933 -24.205931 0.688500 -5.304700 -14.779800 -8.381885 -5.107204 -0.869012 23.521365 0.697571 -5.176378 -6.996567 -12.806686 46.038195 -1.577710 -9.727321 -31.126133 -0.483100 4.457000 -12.366200 1.414499 2.974565 8.638067 1.716802 4.270878 1.461176 -1.241270 2.074487 2.090887 -6.667245 -3.475226 -4.278800 3.950001 -4.687395 8.843197 1.833200 -2.371000 2.918100 -1.006397 -4.683124 3.325604 -85.152905 -17.578000 39.023188 150.157011 -39.896058 -108.380628 -0.012597 3.106612 16.489114 -33.336758 42.396026 -21.973500 -7.125000 0.000000 0.000000 -71.122900 55.811000 -28.653700 -0.561450 4.304738 1.610541 82.062792 20.493088 35.491333 -148.646798 38.601898 -107.748426 0.424194 -0.782866 24.939796 40.113342 -4.834591 -3.432800 7.125000 0.000000 0.000000 44.880500 -27.982600 27.774700 
0.117619 16.451175 0.684303 3.342300 4.286619 -5.174021 6.498136 4.926856 0.932323 -28.436449 -6.096591 -5.355875 5.318437 11.941744 41.810942 2.102964 -0.842306 -23.945414 0.665300 -5.216400 -14.526800 -8.386175 -5.114676 -0.884066 23.607264 0.717355 -5.207033 -6.886635 -12.705321 45.591038 -1.546718 -9.697193 -30.897305 -0.475300 4.421600 -12.265800 1.434786 3.058326 7.475261 1.818681 4.345009 1.849719 -0.960122 2.087574 3.299549 -6.882292 -3.524069 -4.448569 3.973842 -4.739970 8.481877 1.880400 -2.397700 2.771300 -1.007014 -4.734217 3.376849 -85.267340 -18.788081 38.798356 150.154534 -39.864118 -108.367864 0.054305 3.068822 16.548905 -32.400224 42.157030 -21.215200 -7.125000 0.000000 0.000000 -70.189200 55.883700 -28.080800 -0.524293 4.262452 1.629458 81.474490 21.610250 35.156797 -148.645282 38.616800 -107.754945 0.414200 -0.782182 25.039041 39.047893 -4.633916 -3.150600 7.125000 0.000000 0.000000 44.519700 -28.196100 26.890500 
0.118104 16.475202 0.686919 3.196213 4.189881 -5.019086 6.480933 4.937510 0.939750 -28.208553 -5.948813 -5.482070 5.242679 11.870948 41.513786 2.047896 -0.638152 -23.776612 0.742400 -5.504200 -15.352400 -8.389710 -5.125268 -0.869217 23.789243 0.750534 -5.181203 -6.783779 -12.597784 45.162138 -1.517976 -9.679133 -30.688879 -0.474900 4.419800 -12.260800 1.524182 3.036170 7.560887 1.827475 4.317768 1.618487 -0.997605 2.080442 2.889215 -6.850039 -3.462949 -4.439335 3.949175 -4.657254 8.692095 1.865900 -2.358900 2.866000 -1.005118 -4.728553 3.363338 -85.136738 -18.727516 38.419673 150.265503 -39.759244 -108.432000 0.108390 3.027862 16.736290 -31.543127 41.680292 -20.422600 -7.125000 0.000000 0.000000 -69.019700 55.825100 -27.107100 -0.531065 4.280185 1.618516 81.356052 21.731800 35.124904 -148.684627 38.567104 -107.790553 0.407458 -0.780282 24.914941 38.266346 -4.343292 -2.841500 7.125000 0.000000 0.000000 44.167800 -28.199000 26.425200 
0.119072 16.493320 0.686628 3.020503 4.087995 -4.874976 6.469661 4.945067 0.942024 -27.968731 -5.854196 -5.611444 5.188286 11.822834 41.298803 2.010386 -0.534554 -23.628917 0.783200 -5.650000 -15.772300 -8.396077 -5.135420 -0.855419 24.007206 0.814222 -5.198881 -6.695033 -12.508205 44.798929 -1.455856 -9.851381 -30.467616 -0.517700 4.611400 -12.803400 1.695763 3.034620 7.533539 1.826113 4.318769 1.486092 -1.076948 2.085341 2.720529 -6.779108 -3.432321 -4.585846 3.913578 -4.604530 8.870227 1.838600 -2.332600 2.974200 -0.998453 -4.732766 3.362442 -84.890740 -18.959150 38.107279 150.343221 -39.656113 -108.484495 0.131667 3.006521 16.795230 -31.133447 41.369480 -20.015100 -7.125000 0.000000 0.000000 -68.360600 55.751800 -26.497000 -0.534261 4.297741 1.612004 81.245116 22.081856 34.967185 -148.748140 38.496716 -107.846707 0.398778 -0.781302 24.490891 37.580988 -4.549448 -2.923000 7.125000 0.000000 0.000000 44.055200 -28.607200 25.564300 
0.122657 16.508240 0.685272 2.789567 4.002308 -4.767427 6.461802 4.948424 0.942610 -27.709416 -5.842671 -5.715695 5.150545 11.793328 41.155300 1.969732 -0.370460 -23.522865 0.814000 -5.757200 -16.081700 -8.405376 -5.147229 -0.844721 24.268751 0.841179 -5.238184 -6.630524 -12.443943 44.540593 -1.384775 -10.089704 -30.262128 -0.548600 4.744900 -13.182500 1.979588 3.031122 7.456459 1.835667 4.319737 1.412958 -1.188916 2.092220 2.678997 -6.746455 -3.405363 -4.713487 3.885475 -4.557358 9.007524 1.823400 -2.309800 3.059300 -0.990538 -4.744477 3.368831 -84.652886 -19.320307 37.852519 150.421774 -39.554053 -108.529745 0.166858 2.998913 16.809026 -30.647234 41.364698 -19.678200 -7.125000 0.000000 0.000000 -68.008400 55.843800 -26.415000 -0.537210 4.314233 1.606161 81.196813 22.373415 35.050884 -148.854468 38.376803 -107.947011 0.375443 -0.789430 24.676604 36.336338 -5.166257 -3.231700 7.125000 0.000000 0.000000 43.929900 -29.538400 23.802700 
0.126436 16.518413 0.680621 2.758015 3.949716 -4.600921 6.463324 4.949618 0.947892 -27.688816 -5.888100 -5.886553 5.129442 11.783269 41.081843 1.941814 -0.346189 -23.364066 0.791300 -5.678300 -15.853900 -8.406195 -5.152045 -0.833254 24.291169 0.868571 -5.379290 -6.599221 -12.417219 44.409053 -1.389567 -9.957301 -30.158436 -0.508200 4.569700 -12.685200 2.054690 3.046807 7.340220 1.805617 4.337530 1.343403 -1.268542 2.101345 2.644775 -6.664945 -3.396474 -4.781057 3.848287 -4.540210 9.091360 1.793800 -2.300100 3.106200 -0.987200 -4.756226 3.376459 -84.412748 -19.693392 37.634182 150.520489 -39.434904 -108.585503 0.219772 2.983465 16.732652 -29.838067 41.389664 -19.136300 -7.125000 0.000000 0.000000 -67.465400 56.017700 -26.346500 -0.540360 4.328918 1.602410 81.111261 22.697807 35.064024 -148.918572 38.298289 -108.013182 0.357371 -0.793390 24.913641 35.204134 -5.439644 -3.287000 7.125000 0.000000 0.000000 43.646800 -30.091900 22.559000 
